<svg width="466" height="466" viewBox="0 0 466 466" fill="none" xmlns="http://www.w3.org/2000/svg">
<path fill-rule="evenodd" clip-rule="evenodd" d="M109.421 354.954C98.3205 361.769 90.9167 374.02 90.9167 388C90.9167 409.401 108.265 426.75 129.667 426.75C151.068 426.75 168.417 409.401 168.417 388C168.417 368.315 153.738 352.058 134.729 349.578C134.305 348.06 133.863 346.311 133.414 344.349C131.866 337.589 130.39 329.012 129.291 320.203C128.189 311.377 127.506 302.626 127.461 295.484C127.444 292.866 127.515 290.585 127.659 288.672C132.628 287.246 137.612 285.962 142.583 284.829C148.283 283.531 151.657 290.259 154.39 295.712C154.772 296.471 155.14 297.205 155.5 297.889H207.992C219.821 297.887 225.669 297.888 231.583 297.889C237.361 297.891 243.212 297.892 254.766 297.889H307.262C310.209 292.29 316.922 283.35 323.417 284.829C330.344 286.408 337.296 288.281 344.198 290.422L344.156 290.443C344.14 290.413 344.141 290.418 344.157 290.462C344.218 290.643 344.502 291.488 344.783 293.319C345.105 295.404 345.328 298.114 345.42 301.377C345.604 307.891 345.238 315.809 344.467 323.787C343.695 331.756 342.548 339.471 341.256 345.561C340.97 346.909 340.685 348.14 340.405 349.25H323.417C318.524 349.25 314.052 352.014 311.864 356.39L298.947 382.224C298.05 384.016 297.583 385.995 297.583 388V413.833C297.583 420.967 303.366 426.75 310.5 426.75H336.333V400.917H323.417V391.049L331.399 375.083H367.101L375.083 391.049V400.917H362.167V426.75H388C395.134 426.75 400.917 420.967 400.917 413.833V388C400.917 385.995 400.45 384.016 399.553 382.224L386.636 356.39C384.448 352.014 379.976 349.25 375.083 349.25H366.872C368.252 342.369 369.4 334.329 370.179 326.275C371.022 317.569 371.464 308.534 371.243 300.652L371.233 300.297C422.739 322.059 465.5 357.854 465.5 395.361V465.5H0.5V395.361C0.5 356.194 47.1283 318.894 101.65 297.493C101.798 305.522 102.558 314.61 103.655 323.401C104.84 332.891 106.454 342.343 108.233 350.114C108.614 351.779 109.01 353.4 109.421 354.954ZM129.667 401.106C136.621 401.106 142.583 395.417 142.583 388C142.583 380.583 136.621 374.893 129.667 374.893C122.712 374.893 116.75 380.583 116.75 388C116.75 395.417 122.712 401.106 129.667 401.106Z" fill="#F0F4F9"/>
<path fill-rule="evenodd" clip-rule="evenodd" d="M233 233C290.07 233 336.333 186.736 336.333 129.667C336.333 72.597 290.07 26.3333 233 26.3333C175.93 26.3333 129.667 72.597 129.667 129.667C129.667 186.736 175.93 233 233 233ZM233 258.833C304.336 258.833 362.167 201.003 362.167 129.667C362.167 58.3305 304.336 0.5 233 0.5C161.664 0.5 103.833 58.3305 103.833 129.667C103.833 201.003 161.664 258.833 233 258.833Z" fill="#F0F4F9"/>
</svg>
