<svg width="465" height="466" viewBox="0 0 465 466" fill="none" xmlns="http://www.w3.org/2000/svg">
<path d="M77 52.1667C91.2678 52.1667 102.833 40.6007 102.833 26.3333C102.833 12.066 91.2678 0.5 77 0.5C67.4378 0.5 59.0898 5.69508 54.6232 13.4167H51.1667C29.7657 13.4167 12.4167 30.7657 12.4167 52.1667V168.417C5.28331 168.417 -0.560575 174.212 0.0868082 181.317C3.0898 214.27 17.5275 245.297 41.1157 268.885C58.4129 286.182 79.7099 298.559 102.833 305.114V336.333C102.833 353.208 113.619 367.562 128.672 372.88C129.222 424.127 170.936 465.5 222.312 465.5C274.032 465.5 315.958 423.574 315.958 371.854V320.188C315.958 293.436 337.644 271.75 364.396 271.75C391.148 271.75 412.833 293.436 412.833 320.188V351.455C397.783 356.774 387 371.128 387 388C387 409.402 404.348 426.75 425.75 426.75C447.152 426.75 464.5 409.402 464.5 388C464.5 371.128 453.717 356.774 438.667 351.455V320.188C438.667 279.169 405.414 245.917 364.396 245.917C323.378 245.917 290.125 279.169 290.125 320.188V371.854C290.125 409.306 259.764 439.667 222.312 439.667C185.202 439.667 155.054 409.856 154.508 372.876C169.554 367.554 180.333 353.203 180.333 336.333V305.114C203.457 298.559 224.755 286.182 242.052 268.885C265.64 245.297 280.077 214.27 283.08 181.317C283.729 174.212 277.884 168.417 270.75 168.417V52.1667C270.75 30.7657 253.402 13.4167 232 13.4167H228.544C224.077 5.69508 215.729 0.5 206.167 0.5C191.899 0.5 180.333 12.066 180.333 26.3333C180.333 40.6007 191.899 52.1667 206.167 52.1667C215.729 52.1667 224.077 46.9716 228.544 39.25H232C239.134 39.25 244.917 45.0331 244.917 52.1667V168.417H247.623C240.489 168.417 234.798 174.228 233.812 181.293C231.029 201.233 221.831 219.864 207.431 234.265C189.967 251.728 166.281 261.539 141.583 261.539C116.887 261.539 93.2001 251.728 75.7367 234.265C61.336 219.864 52.1393 201.233 49.3558 181.293C48.3694 174.228 42.6786 168.417 35.5449 168.417H38.25V52.1667C38.25 45.0331 44.0331 39.25 51.1667 39.25H54.6232C59.0898 46.9716 67.4378 52.1667 77 52.1667Z" fill="#F0F4F9"/>
</svg>
