<svg width="80" height="80" viewBox="0 0 80 80" fill="none" xmlns="http://www.w3.org/2000/svg">
<path fill-rule="evenodd" clip-rule="evenodd" d="M40 43.3333C49.2083 43.3333 56.6667 35.875 56.6667 26.6667C56.6667 17.4583 49.2083 10 40 10C30.7917 10 23.3333 17.4583 23.3333 26.6667C23.3333 35.875 30.7917 43.3333 40 43.3333ZM53.3333 26.6667C53.3333 34.034 47.3673 40 40 40C32.6327 40 26.6667 34.034 26.6667 26.6667C26.6667 19.2993 32.6327 13.3333 40 13.3333C47.3673 13.3333 53.3333 19.2993 53.3333 26.6667Z" fill="#3bb6b1"/>
<path fill-rule="evenodd" clip-rule="evenodd" d="M48.3918 46.4572L43.3333 60.908V59.9998L42.3758 53.2975C42.9902 53.1682 43.492 52.6988 43.649 52.0707L44.4823 48.7373C44.7453 47.6855 43.9497 46.6665 42.8653 46.6665H37.1347C36.0503 46.6665 35.2547 47.6855 35.5177 48.7373L36.351 52.0707C36.508 52.6988 37.0098 53.1682 37.6242 53.2975L36.6878 59.8513L31.5987 46.4377L31.564 46.3673C31.0567 45.3348 29.9032 44.7713 28.7717 45.0473C28.2027 45.1862 27.5767 45.3327 26.9152 45.4875C25.3527 45.8532 23.5923 46.2652 21.9215 46.7303C19.566 47.386 17.1268 48.2132 15.4319 49.3262C12.3109 51.3755 10 54.0883 10 57.4998V69.9998H70V57.4998C70 54.0883 67.6892 51.3755 64.5682 49.3262C62.8732 48.2132 60.434 47.386 58.0785 46.7302C56.4073 46.265 54.6475 45.8532 53.0847 45.4873C52.4233 45.3327 51.7972 45.186 51.2282 45.0473C50.0967 44.7713 48.9433 45.3348 48.436 46.3673L48.3918 46.4572ZM52.4063 48.7523C52.002 48.6577 51.605 48.5648 51.2178 48.473L44.8492 66.6665H66.6667V57.4998C66.6667 55.7563 65.4932 53.9212 62.7385 52.1125C61.5148 51.309 59.5208 50.5918 57.1845 49.9415C55.5823 49.4955 53.9425 49.1117 52.408 48.7528L52.4063 48.7523ZM28.8037 48.4678L35.7085 66.6665H13.3333V57.4998C13.3333 55.7563 14.5069 53.9212 17.2615 52.1125C18.4852 51.309 20.4792 50.5918 22.8155 49.9415C24.4177 49.4955 26.0575 49.1118 27.5918 48.7528C28.0043 48.6563 28.4092 48.5615 28.8037 48.4678Z" fill="#3bb6b1"/>
</svg>
