<svg width="80" height="80" viewBox="0 0 80 80" fill="none" xmlns="http://www.w3.org/2000/svg">
<path fill-rule="evenodd" clip-rule="evenodd" d="M56.6667 26.6667C56.6667 35.8713 49.2047 43.3333 40 43.3333C30.7953 43.3333 23.3333 35.8713 23.3333 26.6667C23.3333 17.462 30.7953 10 40 10C49.2047 10 56.6667 17.462 56.6667 26.6667ZM53.3333 26.6667C53.3333 34.0305 47.3638 40 40 40C32.6362 40 26.6667 34.0305 26.6667 26.6667C26.6667 19.3028 32.6362 13.3333 40 13.3333C47.3638 13.3333 53.3333 19.3028 53.3333 26.6667Z" fill="#3bb6b1"/>
<path fill-rule="evenodd" clip-rule="evenodd" d="M29.8568 48.0917C29.863 48.104 29.8692 48.1162 29.8753 48.1283C29.9178 48.2133 29.9593 48.2955 30 48.3727H36.7732C38.2847 48.3723 39.0392 48.3725 39.7948 48.3727H39.8362C40.5758 48.3728 41.33 48.373 42.8085 48.3727H49.5822C49.9625 47.6502 50.8287 46.4967 51.6667 46.6875C53.5493 47.1163 55.446 47.714 57.2685 48.4488L57.324 48.4212L57.3422 48.4578L57.3545 48.4837C64.2135 51.269 70 55.9935 70 60.9497V69.9998H10V60.9497C10 54.6575 19.3263 48.7388 28.3333 46.6875C29.0688 46.52 29.5042 47.3883 29.8568 48.0917ZM54.5072 50.9708C53.7915 50.7207 53.0663 50.494 52.3382 50.2932L51.5943 51.706H42.8085C41.2975 51.7063 40.5522 51.7062 39.816 51.706C39.0625 51.7058 38.3187 51.7057 36.774 51.706H27.9878L27.298 50.3957C27.0973 50.4535 26.897 50.5133 26.697 50.5748C26.686 50.6847 26.6773 50.8087 26.6722 50.9477C26.6505 51.5227 26.6935 52.2045 26.7882 52.8997C26.8827 53.5927 27.0232 54.2575 27.1795 54.7935C27.2043 54.8787 27.2292 54.9588 27.2535 55.0338C29.7385 55.3245 31.6667 57.437 31.6667 59.9998C31.6667 62.7613 29.4282 64.9998 26.6667 64.9998C23.9052 64.9998 21.6667 62.7613 21.6667 59.9998C21.6667 58.2217 22.595 56.6602 23.9933 55.7738L23.9795 55.7268C23.7713 55.013 23.5993 54.1847 23.4855 53.35C23.4163 52.8435 23.3667 52.3192 23.3452 51.803C21.2842 52.6828 19.3642 53.7462 17.7538 54.921C14.5495 57.2588 13.3333 59.4447 13.3333 60.9497V66.6665H66.6667V60.9497C66.6667 59.4447 65.4505 57.2588 62.2462 54.921C60.939 53.9673 59.4278 53.0872 57.803 52.319C57.7767 52.6655 57.7392 53.0117 57.693 53.35C57.6162 53.914 57.5127 54.475 57.3893 54.9998H58.3333C58.9647 54.9998 59.5417 55.3565 59.824 55.9212L61.4907 59.2545C61.6065 59.4858 61.6667 59.7412 61.6667 59.9998V63.3332C61.6667 64.2537 60.9205 64.9998 60 64.9998H56.6667V61.6665H58.3333V60.3933L57.3033 58.3332H52.6967L51.6667 60.3933V61.6665H53.3333V64.9998H50C49.0795 64.9998 48.3333 64.2537 48.3333 63.3332V59.9998C48.3333 59.7412 48.3935 59.4858 48.5093 59.2545L50.176 55.9212C50.4583 55.3565 51.0353 54.9998 51.6667 54.9998H53.936C53.9568 54.9347 53.9778 54.866 53.999 54.7935C54.1553 54.2575 54.2958 53.5927 54.3903 52.8997C54.4838 52.2138 54.5268 51.5408 54.5072 50.9708ZM28.3333 59.9998C28.3333 60.9568 27.564 61.691 26.6667 61.691C25.7693 61.691 25 60.9568 25 59.9998C25 59.0428 25.7693 58.3087 26.6667 58.3087C27.564 58.3087 28.3333 59.0428 28.3333 59.9998Z" fill="#3bb6b1"/>
</svg>
