<?xml version="1.0" encoding="utf-8"?>
<!-- Generator: Adobe Illustrator 19.2.1, SVG Export Plug-In . SVG Version: 6.00 Build 0)  -->
<svg version="1.1" id="layer" xmlns="http://www.w3.org/2000/svg" xmlns:xlink="http://www.w3.org/1999/xlink" x="0px" y="0px"
	 viewBox="0 0 652 652" style="enable-background:new 0 0 652 652;" xml:space="preserve">
<style type="text/css">
	.st0{fill:#fff;}
</style>
<path class="st0" d="M70.9,296.1c-0.1-0.1-0.1-0.3-0.1-0.3s0-1.1-0.1-1.2c-0.2-0.3-1-0.1-1.4-0.1h-2.5c-0.4,0-0.8-0.1-1,0.1
	c-0.2,0.2-0.1,0.8-0.1,1.1c0,0,0,0.2-0.1,0.4c-0.1,0.2-0.6,0.2-0.6,0.2c-3,0.1-4.5,0.1-7.3,0.4c0,0-0.5,0-0.6-0.1
	c-0.1-0.1-0.2-0.8-0.2-0.8c-0.1-0.6,0.2-1.1-1.4-0.9l-2.2,0.2c-1.2,0.1-0.9,0.5-0.9,1.1c0,0,0.1,0.6,0,0.8c-0.1,0.3-0.9,0.3-0.9,0.3
	c-5,0.5-5.4,1.1-5.6,0.7c-0.2-0.3-0.2-0.9-0.2-0.9c-0.1-0.4-0.2-0.8-0.9-0.6l-1.6,0.3c-0.9,0.1-0.8,0.6-0.7,1c0,0,0.2,0.9,0,1
	c-0.3,0.1-0.4,0.2-0.6,0.2c-2.6,0.6-3.5,1.1-3.8,1c-0.1-0.1-0.3-0.7-0.3-0.7c-0.2-0.4-0.2-0.7-0.8-0.5l-1.1,0.5c0,0-0.5,0.1-0.2,0.9
	c0,0,0.2,0.4,0.2,0.6c-0.1,0.2-0.4,0.3-0.4,0.3c-0.4,0.2-0.6,0.3-0.8-0.1L34,300c0,0-0.4-0.7-0.4-1c0-0.6,0.6-0.9,0.6-0.9
	c2.6-1.9,14.7-5.7,33.9-5.7c18,0,32.9,4.3,34.7,6.2c0.1,0.1,0.2,0.6,0.1,0.9l-1.8,4l-5.9,0.1c-0.7-2.3-9.2-7.9-24-7.4
	C71.2,296.3,71.1,296.3,70.9,296.1 M68.4,272.1c-14.5,0-23.4,4.6-29.1,10.2c0,0-0.1,0.1-0.1,0.2c-0.1,0.3-0.1,0.7,0.5,0.5
	c12.4-5.2,26-2,30.3,3c0.1,0.2,0,0.3-0.2,0.3c-4.4,0-8-0.2-16.1,0.9c-4.4,0.6-8.2,1.3-11.5,2.1c-5.4,1.4-9.2,3.2-11.4,4.6
	c-0.8,0.4-0.8,0.7-1,1.1c-0.2,0.7-0.2,0.7-0.4,1.2c-0.3,0.9-0.4,1.5-0.5,1.8c-0.1,0.5,0.5,0.4,0.8,0c0.6-0.7,2.4-2.2,5-3.4
	c2.7-1.2,7.1-2.6,11.8-3.5c6.4-1.2,14.1-1.9,21.2-1.9c8.2,0,15.6,0.8,21.8,2c6.3,1.2,11.2,2.9,14.4,4.5c1.5,0.7,2.3,1.4,3.4,2.3
	c0.8,0.8,0.8,0.1,0.8-0.1c0,0-0.1-1.1-1.5-3.5C102.6,286.7,91.7,272.1,68.4,272.1 M26.3,368.9c0,3.4,14,10.3,42.9,10.3
	c28.1,0,42.9-6.9,42.9-10.3l-0.1-5.2c0,0.1,0-0.3-0.1-0.2c0-0.9-1.5-1.1-6.1-1.2l-0.1-2.9c0,0.3-1,0.9-1.5,1.3
	c-3.7,2.1-17.8,5.3-35.5,5.3c-20.5,0-34.8-4.2-37-6.6l0,4.4c6.7,4.8,27.5,9.1,48.4,6.9c0.6,0,0.8-0.1,1.5,0c0.2,0,0.7,0.6-0.4,1
	c-12.1,4-42.1,3.1-54.8-6.5L26.3,368.9 M86.1,302.3h0.3c0,0-0.1,0-0.1,0C86.2,302.3,86.1,302.3,86.1,302.3 M85.8,303.4
	C85.8,303.4,85.8,303.4,85.8,303.4l0-0.9c0,0,0,0,0,0V303.4z M85.8,303.4L85.8,303.4v-0.9V303.4z M78.1,302
	C78.2,302,78.2,302,78.1,302L78.1,302C78.1,302,78.1,302,78.1,302 M85.8,303.4 M86.3,300.2l-7.9,0c-0.4,0-0.6,0.2-0.6,0.6v0.9
	c0,0.4,0.2,0.6,0.6,0.6h2.4c0.2,0,0.3,0.1,0.3,0.1c0.1,0.3-0.4,0.4-0.5,0.6l-1.2,0.8c-0.2,0.1-0.3,0.3-0.3,0.8l0,56.7
	c0.1,1,1.7,1.1,3.4,1.1c1.5,0,3.2-0.1,3.3-1.1c0,0,0-53.9,0-58.6c0-0.2,0.1-0.3,0.1-0.3c0.1,0,0.3-0.1,0.3-0.1
	c0.4,0,0.6-0.2,0.6-0.5v-1C86.8,300.4,86.6,300.2,86.3,300.2 M73.3,339.6l0.2-0.4H74l0-0.4h-11v0.4h0.6l0.2,0.3l0.7,1.4
	c0,0,0.1,0.1,0.3,0.2c0.1,0.1,0.4,0.1,0.5,0.1c2.9,0,2.3,0,2.7,0c0.2,0,0.5,0,0.7,0.2c0.1,0.1,0.2,0.5-0.2,0.7
	c-0.9,0.6-2.5,1.7-3.2,2.1c-0.1,0-0.3,0.2-0.4,0.4c-0.1,0.2-0.1,0.4-0.1,0.4v10.6l-0.9,0.4c0,0-0.3,2.1,0,2.3c0.3,0.2,9.3,0.2,9.6,0
	c0.3-0.2,0-2.4,0-2.4l-0.9-0.3v-14.3L73.3,339.6z M101.6,303.3l-7.9,0c-0.4,0-0.6,0.2-0.6,0.6v0.9c0,0.4,0.2,0.6,0.6,0.6h2.5
	c0.2,0,0.3,0.1,0.3,0.1c0.1,0.2-0.4,0.5-0.5,0.5l-1.2,0.8c-0.2,0.1-0.3,0.3-0.3,0.8l0,51.1c0.1,1,1.7,1.1,3.4,1.1
	c1.5,0,3.2-0.1,3.3-1c0,0,0-48.4,0-53c0-0.2,0.1-0.3,0.1-0.3c0.1,0,0.3-0.1,0.3-0.1c0.4,0,0.6-0.2,0.6-0.6v-1
	C102.2,303.5,102,303.3,101.6,303.3 M58.4,300.2l-7.9,0c-0.4,0-0.6,0.2-0.6,0.6v0.9c0,0.4,0.2,0.6,0.6,0.6H53c0.2,0,0.3,0.1,0.3,0.1
	c0.1,0.3-0.4,0.5-0.5,0.6l-1.2,0.8c-0.2,0.1-0.3,0.3-0.3,0.8l0,56.7c0.1,1,1.7,1.1,3.4,1.1c1.5,0,3.2-0.1,3.3-1.1c0,0,0-53.9,0-58.6
	c0-0.2,0.1-0.3,0.1-0.3c0.1,0,0.3-0.1,0.3-0.1c0.4,0,0.6-0.2,0.6-0.5v-1C58.9,300.4,58.7,300.2,58.4,300.2 M43,303.5l-7.9,0
	c-0.4,0-0.6,0.2-0.6,0.6v0.9c0,0.4,0.2,0.6,0.6,0.6l2.5,0c0.2,0,0.3,0.1,0.3,0.1c0.1,0.2-0.4,0.5-0.5,0.6l-1.2,0.8
	c-0.2,0.1-0.3,0.3-0.3,0.8l0,51.1c0.1,1,1.7,1.1,3.4,1.1c1.5,0,3.2-0.1,3.3-1.1c0,0,0-48.4,0-53c0-0.2,0.1-0.3,0.1-0.3
	c0,0,0.3-0.1,0.3-0.1c0.4,0,0.6-0.2,0.6-0.5v-1C43.6,303.7,43.3,303.5,43,303.5 M122.2,278.3c4.9,0,6.1,1.1,6.1,5.4v20.1
	c0,11.6,7.3,18.2,20.9,18.2c13,0,21.7-6.4,21.7-17.7v-19.9c0-5,1.1-6.1,6.5-6.1v-1.9H160v1.9c5.8,0,6.9,0.6,6.9,6.1v19.1
	c0,10.6-7.4,14-15.4,14c-8.9,0-15.3-4.4-15.3-13.9v-19.2c0-5,1-6.1,6.3-6.1v-1.9h-20.3V278.3z M224.4,321.2h3.9v-36.7
	c0-5.4,1.5-6.3,6.3-6.3v-1.9h-17.3v1.9c6.2-0.1,7.1,0.8,7.1,6.1V310l-31.9-33.7h-12.9v1.9c2.7,0.2,4.3,0.8,6,2.3v32.1
	c0,4.6-0.9,6.3-6,6.1v1.9h17.1v-1.9c-6.4,0.4-7.1-1.4-7.1-7v-27.4L224.4,321.2z M283.9,308.9h-2.1c-4,6.8-10.2,10.5-17.2,10.5
	c-10.9,0-19.1-9.3-19.1-21.8c0-12.1,7.1-20.1,17.9-20.1c7.9,0,13.7,4,16.4,11.4h2.1l-0.4-11.8h-1.8c-0.4,0.4-0.7,0.5-1.3,0.5
	c-2.1,0-7.6-2.4-15.4-2.4c-18.1,0-26.2,12.1-26.2,24.2c0,12.8,9,22.5,25.6,22.5c6.1,0,11-1.6,14.2-1.6c1.1,0,1.6,0.1,2.4,0.5
	L283.9,308.9z M303,320.8h15.9v-1.9c-4.7-0.4-6.4-0.4-5.9-8l1.7-26.4h0.1l16.8,36.4h2.4l16.5-37.3h0.1l1.9,26.4c0.6,7.6-0.4,9-6.3,9
	v1.9h20.3v-1.9c-4.2,0-5.6-0.3-5.9-3.9l-2.6-32.5c-0.3-3.3,0.6-4.1,4.6-4.1v-1.9h-13.2L335,309.5l-15.4-33.1h-13.2v1.9
	c4.1,0,4.9,0.9,4.5,7.3l-1.7,26.3c-0.4,6.2-1.7,7-6.1,7V320.8z M407.9,320.8l1.1-11.2h-1.9c-1.9,7-3.4,8-10.6,8h-7.9
	c-3.6,0-4.2-0.7-4.2-5.1v-13h11.1c3.9,0,4.9,0.6,5.4,5.7h1.9v-14.4h-1.9c-0.4,4.9-1.2,5.4-5.4,5.4h-11.1v-16.6h12.6
	c4.6,0,5.7,0.1,7.1,6l0.4,1.5h1.9l-0.6-10.7h-36.5v1.9c4.9,0,7.2,0.1,7.2,4.9V314c0,4-1.4,4.9-7.2,4.9v1.9H407.9z M418.6,313.1
	c0,4.8-0.7,5.8-6.8,5.8v1.9H434c20.9,0,28.3-13,28.3-23.5c0-5.4-1.7-10.8-6.1-15.2c-4.4-4.4-12.1-6.3-22.9-6.3
	c-2.7,0-6.4,0-10.2,0.1c-3,0.1-9.1,0.4-11.2,0.4v1.9c5.4-0.1,6.8,1.1,6.8,6.3V313.1z M426.5,277.9c1.8-0.1,4-0.1,5.2-0.1
	c8.4,0,12.9,1.6,16.4,5.2c4.4,4.4,5.5,10.1,5.5,15.3c0,5-1.2,11-5.6,15.4c-3.3,3.3-7.7,5.1-16.3,5.1c-4.6,0-5.3-0.6-5.3-5.1V277.9z
	 M465.2,278.3c4.9-0.1,5.9,1.5,5.9,5.4v29.1c0,4.1-0.2,6.3-5.9,6.1v1.9h19.9v-1.9c-5.1,0.1-6.1-1.3-6.1-6.6v-27.8
	c0-5.1,1.4-6.1,6.1-6.1v-1.9h-19.9V278.3z M535.9,308.9h-2.1c-4,6.8-10.2,10.5-17.2,10.5c-10.9,0-19.1-9.3-19.1-21.8
	c0-12.1,7.1-20.1,17.9-20.1c7.9,0,13.7,4,16.4,11.4h2.1l-0.4-11.8h-1.8c-0.4,0.4-0.7,0.5-1.3,0.5c-2.1,0-7.6-2.4-15.4-2.4
	c-18.1,0-26.2,12.1-26.2,24.2c0,12.8,9,22.5,25.7,22.5c6.1,0,11-1.6,14.2-1.6c1.1,0,1.6,0.1,2.4,0.5L535.9,308.9z M535.1,320.8h17.4
	v-1.9c-5.7,0.2-7.1-0.7-7.1-2.8c0-0.7,0.2-1.6,0.7-3l3.5-9.5h16.4l3.4,8.9c0.7,1.9,1,3.1,1,3.8c0,2.1-1.6,2.6-7.2,2.6v1.9h21.2v-1.9
	c-4.5,0-5.2-0.9-7.3-6.4l-13.9-37.2h-8l0.6,1.8l-12.9,35.4c-2,5.6-2.9,6.4-7.7,6.4V320.8z M550.9,300l6.8-18.1l6.9,18.1H550.9z
	 M620.7,320.8l5.5-10.8h-2.1c-5.4,7.3-5.8,7.6-11.9,7.6h-7.4c-3.3,0-3.9-0.6-3.9-3.5v-30.2c0-5.4,0.9-5.6,8.6-5.6v-1.9h-23.4v1.9
	c6.4-0.1,6.9,1.3,6.9,6.1v28.3c0,5.6-1.2,6.1-6.9,6.1v1.9H620.7z M173.1,366.4H171c-4,6.8-10.2,10.5-17.2,10.5
	c-10.9,0-19.1-9.3-19.1-21.8c0-12.1,7.1-20.1,17.9-20.1c7.9,0,13.7,4,16.4,11.4h2.1l-0.4-11.8h-1.8c-0.4,0.4-0.7,0.5-1.3,0.5
	c-2.1,0-7.6-2.4-15.4-2.4c-18.1,0-26.2,12.1-26.2,24.2c0,12.8,9,22.5,25.7,22.5c6.1,0,11-1.6,14.2-1.6c1.1,0,1.6,0.1,2.4,0.5
	L173.1,366.4z M214.2,378.3l1.1-11.2h-1.9c-1.9,7-3.4,8-10.6,8h-7.9c-3.6,0-4.2-0.7-4.2-5.1v-13h11.1c3.9,0,4.9,0.6,5.4,5.7h1.9
	v-14.4H207c-0.4,4.9-1.2,5.4-5.4,5.4h-11.1v-16.6h12.6c4.6,0,5.7,0.1,7.1,6l0.4,1.5h1.9l-0.6-10.7h-36.5v1.9c4.9,0,7.2,0.1,7.2,4.9
	v30.8c0,4-1.4,4.9-7.2,4.9v1.9H214.2z M263.1,378.8h3.9v-36.7c0-5.4,1.5-6.3,6.3-6.3v-1.9h-17.3v1.9c6.2-0.1,7.1,0.8,7.1,6.1v25.6
	l-31.9-33.7h-12.9v1.9c2.7,0.2,4.3,0.8,6,2.3v32.2c0,4.6-0.9,6.3-6,6.1v1.9h17.1v-1.9c-6.4,0.4-7.1-1.4-7.1-7V342L263.1,378.8z
	 M275.6,345h2.1c1.1-7.4,2.5-7.9,6.7-7.9h10.2v33.7c0,4.7-1.1,5.6-8.3,5.6v1.9h24.5v-1.9c-7.5,0-8.3-0.8-8.3-5.6v-33.7h10.2
	c4.3,0,5.7,0.4,6.7,7.9h2.1l-1.3-12.3h-1.9c-0.4,1.1-1,1.2-4.6,1.2h-30.2c-1.9,0-2.9-0.1-3.5-0.2c-0.6-0.1-0.9-0.5-1.1-1h-1.9
	L275.6,345z M363.9,378.3l1.1-11.2H363c-1.9,7-3.4,8-10.6,8h-7.9c-3.6,0-4.2-0.7-4.2-5.1v-13h11.1c3.9,0,4.9,0.6,5.4,5.7h1.9v-14.4
	h-1.9c-0.4,4.9-1.2,5.4-5.4,5.4h-11.1v-16.6h12.6c4.6,0,5.7,0.1,7.1,6l0.4,1.5h1.9l-0.6-10.7h-36.5v1.9c4.9,0,7.2,0.1,7.2,4.9v30.8
	c0,4-1.4,4.9-7.2,4.9v1.9H363.9z M383,359.9c1.9,0.2,4.3,0.1,6.4,0c3,2.2,4.1,3.2,7.7,6.9l3.8,3.8c6.4,6.4,9.9,8.9,24,8.6v-2
	c-5.9-0.6-10.8-3.5-17.1-9.9l-4.6-4.6c-1.1-1.1-4.2-4.1-5.4-4.9c6-2.5,9-6.4,9-11.6c0-6.5-4.9-12.8-19.4-12.8c-1.4,0-4.9,0-8.7,0.1
	c-4.9,0.2-8.6,0.5-10.2,0.5v1.9c5.9,0,6.6,1.1,6.6,5.8v28.7c0,4.7-0.6,6.4-6.6,6.1v1.9h21.9v-1.9c-6.5,0.2-7.3-0.9-7.3-7.1V359.9z
	 M383,335.5c0.6-0.1,2.4-0.3,3.4-0.3c7.8,0,11.6,4.3,11.6,11.5c0,7.3-3.3,10.9-12.8,11.4c-0.4,0-1.8-0.1-2.3-0.2V335.5z"/>
</svg>
