<svg width="80" height="80" viewBox="0 0 80 80" fill="none" xmlns="http://www.w3.org/2000/svg">
<path fill-rule="evenodd" clip-rule="evenodd" d="M32.9542 13.8359L35.438 12.4226L37.0725 15.2535C39.2807 14.5306 41.7743 15.4216 42.9868 17.5066L50.5247 30.4679C51.9128 32.8551 51.096 35.9034 48.7003 37.2766L47.2862 38.0873L48.4147 40.2683L43.9582 42.5388L42.943 40.5766L41.831 41.2139C39.4352 42.5871 36.3677 41.7653 34.9795 39.3781L30.1098 31.0046C25.8383 33.4614 22.8927 36.2048 21.3127 39.3419C19.9828 41.9823 19.5457 45.0518 20.2813 48.7371C22.6682 47.4176 25.413 46.6666 28.3333 46.6666C33.7828 46.6666 38.6215 49.2819 41.6625 53.3261L61.806 41.9743L63.4607 44.8679L43.3903 56.1783C44.4223 58.3463 45 60.7723 45 63.3333C45 64.4748 44.8852 65.5896 44.6667 66.6666H66.6667C67.5872 66.6666 68.3333 67.4128 68.3333 68.3333C68.3333 69.2538 67.5872 69.9999 66.6667 69.9999H13.0535C12.1615 67.9584 11.6667 65.7036 11.6667 63.3333C11.6667 58.3409 13.8617 53.8613 17.3393 50.8066C16.0703 45.9276 16.4309 41.6246 18.3355 37.8426C20.311 33.9201 23.8453 30.7648 28.4342 28.1231L27.4417 26.4166C26.375 24.5826 26.6102 22.3581 27.863 20.8031L26.0942 17.7393L28.608 16.309L26.5393 12.5966L30.9227 10.1899L32.9542 13.8359ZM47.6327 32.1256L40.0948 19.1641C39.6322 18.3684 38.6097 18.0944 37.811 18.5523L30.9418 22.4896C30.1432 22.9473 29.871 23.9634 30.3337 24.7591L37.8715 37.7204C38.3342 38.5163 39.3567 38.7903 40.1553 38.3324L47.0245 34.3951C47.8232 33.9374 48.0953 32.9213 47.6327 32.1256ZM41.2475 66.6666C41.5208 65.6033 41.6667 64.4869 41.6667 63.3333C41.6667 61.3671 41.2412 59.5004 40.477 57.8201L32.4703 62.3323L30.8158 59.4386L38.7267 54.9804C36.2828 51.9434 32.535 49.9999 28.3333 49.9999C20.9695 49.9999 15 55.9694 15 63.3333C15 64.4869 15.1458 65.6033 15.4192 66.6666H41.2475Z" fill="#3bb6b1"/>
</svg>
