<svg width="84" height="84" viewBox="0 0 84 84" fill="none" xmlns="http://www.w3.org/2000/svg">
<path d="M42 5.25C21.7055 5.25 5.25 21.7055 5.25 42C5.25 62.2945 21.7055 78.75 42 78.75C62.2945 78.75 78.75 62.2945 78.75 42C78.75 21.7055 62.2945 5.25 42 5.25ZM53.8207 42.566L35.9051 55.6008C35.8069 55.6714 35.6911 55.7135 35.5705 55.7226C35.4499 55.7316 35.3291 55.7073 35.2214 55.6522C35.1138 55.5971 35.0234 55.5133 34.9602 55.4102C34.897 55.3071 34.8635 55.1885 34.8633 55.0676V29.0145C34.8629 28.8933 34.8961 28.7743 34.9591 28.6708C35.0222 28.5673 35.1127 28.4833 35.2205 28.4281C35.3284 28.3729 35.4495 28.3486 35.5703 28.358C35.6911 28.3674 35.807 28.4101 35.9051 28.4813L53.8207 41.5078C53.9053 41.5677 53.9744 41.647 54.022 41.739C54.0697 41.8311 54.0946 41.9332 54.0946 42.0369C54.0946 42.1406 54.0697 42.2427 54.022 42.3348C53.9744 42.4269 53.9053 42.5062 53.8207 42.566V42.566Z" fill="white"/>
</svg>
