<svg width="80" height="80" viewBox="0 0 80 80" fill="none" xmlns="http://www.w3.org/2000/svg">
<path d="M73.1667 29.0701L73.0833 28.5101L72.9967 28.5301C72.4044 25.7602 71.0399 23.2146 69.0611 21.1879C67.0824 19.1612 64.5702 17.7362 61.8153 17.0777C59.0604 16.4192 56.1754 16.5542 53.494 17.4671C50.8127 18.38 48.4446 20.0334 46.6637 22.2361C44.8829 24.4387 43.7621 27.1006 43.4311 29.9137C43.1001 32.7268 43.5723 35.5761 44.7931 38.132C46.014 40.6879 47.9336 42.8458 50.3298 44.3562C52.726 45.8666 55.5008 46.6677 58.3333 46.6667C59.0767 46.6667 59.79 46.5534 60.5 46.4501C60.27 47.2234 60.0333 48.0101 59.6533 48.7167C59.2733 49.7434 58.68 50.6334 58.09 51.5301C57.5967 52.5001 56.7267 53.1567 56.0867 53.9867C55.4167 54.7934 54.5033 55.3301 53.78 56.0001C53.07 56.7001 52.14 57.0501 51.4 57.5434C50.6267 57.9867 49.9533 58.4767 49.2333 58.7101L47.4367 59.4501L45.8567 60.1067L47.47 66.5701L49.46 66.0901C50.0967 65.9301 50.8733 65.7434 51.7567 65.5201C52.66 65.3534 53.6233 64.8967 54.6967 64.4801C55.7533 64.0034 56.9833 63.6867 58.1233 62.9234C59.27 62.1967 60.5933 61.5901 61.76 60.6167C62.89 59.6134 64.2533 58.7434 65.26 57.4701C66.36 56.2767 67.4467 55.0234 68.29 53.5967C69.2667 52.2367 69.93 50.7434 70.63 49.2667C71.2633 47.7901 71.7733 46.2801 72.19 44.8134C72.98 41.8734 73.3333 39.0801 73.47 36.6901C73.5833 34.2967 73.5167 32.3067 73.3767 30.8667C73.3298 30.2654 73.2598 29.666 73.1667 29.0701ZM36.5 29.0701L36.4167 28.5101L36.33 28.5301C35.7377 25.7602 34.3732 23.2146 32.3945 21.1879C30.4157 19.1612 27.9036 17.7362 25.1487 17.0777C22.3938 16.4192 19.5087 16.5542 16.8274 17.4671C14.146 18.38 11.7779 20.0334 9.99707 22.2361C8.21624 24.4387 7.09546 27.1006 6.76442 29.9137C6.43339 32.7268 6.90561 35.5761 8.12646 38.132C9.34731 40.6879 11.2669 42.8458 13.6631 44.3562C16.0593 45.8666 18.8342 46.6677 21.6667 46.6667C22.41 46.6667 23.1233 46.5534 23.8333 46.4501C23.6033 47.2234 23.3667 48.0101 22.9867 48.7167C22.6067 49.7434 22.0133 50.6334 21.4233 51.5301C20.93 52.5001 20.06 53.1567 19.42 53.9867C18.75 54.7934 17.8367 55.3301 17.1133 56.0001C16.4033 56.7001 15.4733 57.0501 14.7333 57.5434C13.96 57.9867 13.2867 58.4767 12.5667 58.7101L10.77 59.4501C9.76667 59.8601 9.19334 60.1001 9.19334 60.1001L10.8067 66.5634L12.7967 66.0834C13.4333 65.9234 14.21 65.7367 15.0933 65.5134C15.9967 65.3467 16.96 64.8901 18.0333 64.4734C19.09 63.9967 20.32 63.6801 21.46 62.9167C22.6067 62.1901 23.93 61.5834 25.0967 60.6101C26.2267 59.6067 27.59 58.7367 28.5967 57.4634C29.6967 56.2701 30.7833 55.0167 31.6267 53.5901C32.6033 52.2301 33.2667 50.7367 33.9667 49.2601C34.6 47.7834 35.11 46.2734 35.5267 44.8067C36.3167 41.8667 36.67 39.0734 36.8067 36.6834C36.92 34.2901 36.8533 32.3001 36.7133 30.8601C36.6636 30.2611 36.5924 29.664 36.5 29.0701Z" fill="#d1e4dd"/>
</svg>
