<svg width="50" height="50" viewBox="0 0 50 50" fill="none" xmlns="http://www.w3.org/2000/svg">
<path d="M42.1509 7.2845C41.0262 6.27916 36.4744 3.07409 26.3259 3.03113C26.3259 3.03113 14.362 2.33512 8.53499 7.5251C5.29384 10.67 4.15146 15.2843 4.02749 20.9984C3.90351 26.7125 3.75296 37.419 14.3885 40.3233H14.3974L14.3885 44.7571C14.3885 44.7571 14.3177 46.553 15.5398 46.9139C17.0098 47.3607 17.8776 45.9945 19.2857 44.5251C20.0561 43.7174 21.1188 42.5316 21.9247 41.6294C29.204 42.2223 34.7918 40.8647 35.4295 40.667C36.8995 40.203 45.2149 39.1719 46.5609 28.4654C47.9601 17.4153 45.8879 10.438 42.1509 7.2845ZM43.3818 27.6577C42.2394 36.5941 35.5003 37.1612 34.2605 37.5479C33.7292 37.7111 28.8143 38.8969 22.642 38.5103C22.642 38.5103 18.037 43.8979 16.6024 45.2985C16.1331 45.7539 15.6195 45.7109 15.6283 44.8087C15.6283 44.2158 15.6637 37.4448 15.6637 37.4448C15.6549 37.4448 15.6549 37.4448 15.6637 37.4448C6.64874 35.0216 7.18008 25.9048 7.27749 21.1359C7.3749 16.367 8.30474 12.4573 11.05 9.82793C15.9825 5.48863 26.1399 6.13308 26.1399 6.13308C34.721 6.16746 38.83 8.67651 39.7864 9.5186C42.9479 12.148 44.5596 18.4378 43.3818 27.6577ZM31.0725 20.7148C31.1079 21.4538 29.9655 21.5054 29.9301 20.7664C29.8327 18.876 28.9206 17.9566 27.0432 17.8535C26.2816 17.8105 26.3525 16.7021 27.1052 16.745C29.5759 16.8739 30.9485 18.2487 31.0725 20.7148ZM32.8702 21.6858C32.9587 18.0425 30.612 15.1898 26.1576 14.8718C25.4049 14.8203 25.4846 13.7118 26.2373 13.7634C31.3736 14.1243 34.11 17.5527 34.0126 21.7116C34.0037 22.4506 32.8525 22.4162 32.8702 21.6858ZM37.0323 22.8372C37.0412 23.5762 35.8899 23.5848 35.8899 22.8458C35.8368 15.8428 31.0282 12.0277 25.1924 11.9847C24.4396 11.9761 24.4396 10.8762 25.1924 10.8762C31.719 10.9192 36.9703 15.2929 37.0323 22.8372ZM36.0316 31.2666V31.2838C35.0752 32.9164 33.2864 34.7209 31.4444 34.1452L31.4267 34.1194C29.5582 33.6124 25.157 31.4127 22.3763 29.2646C20.9417 28.1647 19.6311 26.8672 18.6215 25.6213C17.7094 24.5128 16.7884 23.1981 15.894 21.6171C14.0077 18.3089 13.5915 16.831 13.5915 16.831C12.9982 15.0437 14.849 13.308 16.5405 12.38H16.5582C17.3729 11.9675 18.1522 12.105 18.6747 12.7151C18.6747 12.7151 19.7727 13.9868 20.2421 14.614C20.6849 15.1984 21.2782 16.135 21.5881 16.6591C22.1283 17.5957 21.7918 18.5495 21.2605 18.9448L20.1978 19.7697C19.6576 20.1907 19.7285 20.9726 19.7285 20.9726C19.7285 20.9726 21.3048 26.7555 27.1937 28.2162C27.1937 28.2162 27.9996 28.285 28.4335 27.7608L29.2837 26.7297C29.691 26.2142 30.674 25.8876 31.6393 26.4118C32.941 27.125 34.597 28.2334 35.6951 29.2388C36.315 29.7286 36.4567 30.4761 36.0316 31.2666Z" fill="#3bb5b1"/>
</svg>
