<svg width="50" height="50" viewBox="0 0 50 50" fill="none" xmlns="http://www.w3.org/2000/svg">
<path d="M39.8591 10.1031C36.0246 6.16562 30.9179 4 25.4908 4C14.2891 4 5.17388 13.3375 5.17388 24.8125C5.17388 28.4781 6.10737 32.0594 7.88281 35.2188L5 46L15.7717 43.1031C18.7368 44.7625 22.0772 45.6344 25.4817 45.6344H25.4908C36.6835 45.6344 46 36.2969 46 24.8219C46 19.2625 43.6937 14.0406 39.8591 10.1031ZM25.4908 42.1281C22.4525 42.1281 19.4781 41.2938 16.8882 39.7188L16.275 39.3438L9.88705 41.0594L11.5893 34.675L11.1866 34.0188C9.49353 31.2625 8.6058 28.0844 8.6058 24.8125C8.6058 15.2781 16.1835 7.51562 25.5 7.51562C30.0118 7.51562 34.2491 9.31562 37.4339 12.5875C40.6188 15.8594 42.5772 20.2 42.5681 24.8219C42.5681 34.3656 34.7982 42.1281 25.4908 42.1281ZM34.7525 29.1719C34.2491 28.9094 31.7507 27.6531 31.2839 27.4844C30.8172 27.3062 30.4786 27.2219 30.14 27.7469C29.8013 28.2719 28.8313 29.4344 28.5292 29.7906C28.2364 30.1375 27.9344 30.1844 27.431 29.9219C24.4475 28.3937 22.4891 27.1938 20.5214 23.7344C19.9998 22.8156 21.0431 22.8813 22.0132 20.8937C22.1779 20.5469 22.0955 20.2469 21.9674 19.9844C21.8393 19.7219 20.8234 17.1625 20.4025 16.1219C19.9906 15.1094 19.5696 15.25 19.2585 15.2313C18.9656 15.2125 18.627 15.2125 18.2884 15.2125C17.9498 15.2125 17.4007 15.3438 16.9339 15.8594C16.4672 16.3844 15.1585 17.6406 15.1585 20.2C15.1585 22.7594 16.9797 25.2344 17.2268 25.5813C17.483 25.9281 20.8051 31.1781 25.9027 33.4375C29.1241 34.8625 30.3871 34.9844 31.9978 34.7406C32.977 34.5906 34.9996 33.4844 35.4205 32.2656C35.8415 31.0469 35.8415 30.0063 35.7134 29.7906C35.5944 29.5563 35.2558 29.425 34.7525 29.1719Z" fill="#3bb5b1"/>
</svg>
