<svg width="50" height="50" viewBox="0 0 50 50" fill="none" xmlns="http://www.w3.org/2000/svg">
<path d="M47.7131 13.4594C47.1679 11.3904 45.5615 9.76095 43.5218 9.20796C39.8247 8.20312 25 8.20312 25 8.20312C25 8.20312 10.1753 8.20312 6.47821 9.20796C4.43854 9.76104 2.83212 11.3904 2.28689 13.4594C1.29626 17.2096 1.29626 25.0339 1.29626 25.0339C1.29626 25.0339 1.29626 32.8583 2.28689 36.6085C2.83212 38.6775 4.43854 40.2391 6.47821 40.792C10.1753 41.7969 25 41.7969 25 41.7969C25 41.7969 39.8247 41.7969 43.5218 40.792C45.5615 40.2391 47.1679 38.6775 47.7131 36.6085C48.7037 32.8583 48.7037 25.0339 48.7037 25.0339C48.7037 25.0339 48.7037 17.2096 47.7131 13.4594ZM20.1515 32.1379V17.93L32.542 25.0341L20.1515 32.1379Z" fill="#3bb5b1"/>
</svg>
